<?xml version="1.0" encoding="UTF-8" standalone="no"?>
<!DOCTYPE svg PUBLIC "-//W3C//DTD SVG 1.1//EN" "http://www.w3.org/Graphics/SVG/1.1/DTD/svg11.dtd">
<svg width="100%" height="100%" viewBox="0 0 5959 5959" version="1.1" xmlns="http://www.w3.org/2000/svg" xmlns:xlink="http://www.w3.org/1999/xlink" xml:space="preserve" xmlns:serif="http://www.serif.com/" style="fill-rule:evenodd;clip-rule:evenodd;stroke-linecap:round;stroke-linejoin:round;stroke-miterlimit:1.5;">
    <g transform="matrix(1,0,0,1,-19150.5,-6108.33)">
        <g id="Pocono-Sports-Hub" serif:id="Pocono Sports Hub" transform="matrix(1,0,0,1,-43156,6108.33)">
            <rect x="62306.4" y="0" width="5958.33" height="5958.33" style="fill:none;"/>
            <g transform="matrix(1.3714,1.07552,-1.07552,1.3714,2972.89,-50098.2)">
                <g>
                    <g transform="matrix(1,0,0,1,0.530152,0)">
                        <path d="M45994.7,2849.06L46503.8,3388.58L46353.6,3159.38L46105.9,2891.41L45994.7,2849.06Z" style="fill:rgb(212,153,13);stroke:black;stroke-width:21.69px;"/>
                    </g>
                    <g transform="matrix(1,0,0,1,0.530152,0)">
                        <path d="M46015.1,2711.5L45680.6,2589.56L45806.9,2698.28L46015.1,2711.5Z" style="fill:rgb(212,153,13);stroke:black;stroke-width:21.69px;"/>
                    </g>
                    <g transform="matrix(1,0,0,1,0.530152,0)">
                        <path d="M46494.7,2546.12L46458,2582.63L46438.8,2585.08L46306.6,2554.15L46419.4,2672.48L46419.3,2733.59L46433.9,2731.77L46436.8,2694.22L46472.9,2681.94L46447.3,2642.26L46485.3,2656.9L46470.7,2738.24L46538.5,2638.18L46552.5,2661.42L46506.5,2731.32L46544.2,2740.51L46580.6,2658.76L46494.7,2546.12Z" style="fill:rgb(212,153,13);stroke:black;stroke-width:21.69px;"/>
                    </g>
                    <g transform="matrix(1,0,0,1,0.530152,0)">
                        <path d="M46854.4,2165.93L46561.8,1958.13L46620.1,2123.94L46492.8,2072.25L46216.8,1890.97L46416.4,2258.68L46513.3,2275.29L46434,2125.79L46657.1,2191.59L46681.6,2251.42L46665.5,2295.92L46707.2,2272.4L46752.8,2265.24L46739,2208.38L46756,2186.66L46889.4,2270.29L46854.4,2165.93Z" style="fill:rgb(212,153,13);stroke:black;stroke-width:21.69px;"/>
                    </g>
                    <g transform="matrix(1,0,0,1,0.530152,0)">
                        <path d="M47378.9,1607.37L47087,1284.69L47161.1,1642.11L47057.2,1581.25L47163.5,1862.38L47238.8,1913.96L47219.2,1786.01L47333.2,1856.22L47342.8,1795.5L47236.6,1707.62L47238.9,1548.39L47364.4,1678.93L47378.9,1607.37Z" style="fill:rgb(212,153,13);stroke:black;stroke-width:21.69px;"/>
                    </g>
                    <g transform="matrix(1,0,0,1,0.530152,0)">
                        <path d="M47703.2,1639.88L47705.7,1485.59L47805.1,1656.34L47795.3,1703.79L47745.9,1697.74L47703.2,1639.88Z" style="fill:rgb(212,153,13);stroke:black;stroke-width:21.69px;"/>
                    </g>
                    <g transform="matrix(1,0,0,1,0.530152,0)">
                        <path d="M48345.6,1945.29L48155.9,1558L48128.6,1469.25L48112.4,1432.42L48100.6,1377.85L48073.7,1259.18L48048,1093.66L48039.6,1019.81L48014.3,889.253L47994.2,1063.94L47992.7,1102.54L47988.3,1136.16L47958.8,1072.57L47921.9,1043.06L47785.3,1748.41L47425.8,1290.78L47315.6,1958.38L46744.7,1568.77L46723.7,1407.13L46365.2,1183.28L46498,1577.87L46664.2,1632.07L46889,2276.25L46841.3,2319.33L46215,2227.88L46581.5,2657.17L46540.3,2736.95L45658.5,2688.56L45616.1,2670.28L45586.5,2628.97L45497.8,2627.45L45551.6,2693.57L45633.9,2704.74L46501.3,3053.43L46529,3032.75L46261.5,2858.15C46478.3,2880.59 46663.2,2839.89 46812.5,2728.59C46588.6,2656.31 46759.8,2373.95 47038.3,2356.71C47054.1,2178.82 46942.4,1981.8 46865.3,1821.48C46989.2,1978.48 47132.9,2064.1 47319.7,2131.44C47494.3,1776.29 47688.7,1829.83 47810.6,2016.67C47980.5,1853.05 48025.7,1683.94 48018.3,1512.52L48138.5,1848.57L48112.4,1524.29L48142.1,1598.86L48345.6,1945.29Z" style="fill:rgb(212,153,13);stroke:black;stroke-width:21.69px;"/>
                    </g>
                    <g transform="matrix(1,0,0,1,0.530152,0)">
                        <path d="M47996.5,713.895L47968.7,790.723L48004.2,835.113L48036.2,791.36L47996.5,713.895Z" style="fill:rgb(212,153,13);stroke:black;stroke-width:21.69px;"/>
                    </g>
                </g>
            </g>
        </g>
    </g>
</svg>
